<svg width="200" height="202" viewBox="0 0 200 202" fill="none" xmlns="http://www.w3.org/2000/svg">
<rect y="0.5" width="200" height="201" rx="20" fill="#00704A"/>
<path d="M43.642 64.3692C44.7357 62.5812 47.6189 64.2698 46.5253 66.0579C43.7415 70.5279 40.8583 74.7993 38.0745 79.17C38.1739 98.3416 38.2733 117.513 38.4722 136.784C38.4722 138.87 35.0918 138.87 35.0918 136.784C34.9924 117.612 34.7936 98.4409 34.6942 79.2694C31.9104 74.7993 29.0272 70.5279 26.2434 66.0579C25.1498 64.2698 28.033 62.5812 29.1266 64.3692C31.5127 68.2432 33.9982 71.9186 36.3843 75.594C38.7704 71.9186 41.2559 68.2432 43.642 64.3692Z" fill="white"/>
<path d="M71.2112 63.5745C73.299 63.5745 73.299 66.9519 71.2112 66.8525C69.2227 66.8525 67.1349 66.8525 65.1465 66.8525C65.3453 90.0968 65.4447 113.44 65.6436 136.784C65.6436 138.87 62.2633 138.87 62.2633 136.784C62.0644 113.44 61.965 90.0968 61.8656 66.8525C59.6783 66.8525 57.4911 66.8525 55.4032 66.8525C53.216 66.9519 53.216 63.5745 55.4032 63.5745C60.6725 63.4752 65.9419 63.4752 71.2112 63.5745Z" fill="white"/>
<path d="M95.393 103.706C96.2878 105.692 93.0069 106.487 92.2115 104.6C91.2173 102.116 88.6324 102.514 87.3399 104.401C85.7491 106.586 85.3515 109.864 85.252 112.447C85.252 112.447 85.252 112.447 85.252 112.546C85.3515 120.593 85.3515 128.738 85.4509 136.784C85.4509 138.969 82.0706 138.969 82.0706 136.784C81.9711 124.864 81.9711 113.043 81.8717 101.123C81.7723 98.9376 85.1526 98.9376 85.1526 101.123C85.1526 101.322 85.1526 101.421 85.1526 101.62C85.5503 101.222 86.0474 100.825 86.5445 100.527C89.9248 98.1429 93.9017 100.13 95.393 103.706Z" fill="white"/>
<path d="M116.962 136.287C117.658 138.373 114.377 139.267 113.78 137.181C113.582 136.486 113.383 135.791 113.283 135.095C112.587 135.989 111.792 136.784 110.798 137.38C107.616 139.267 103.043 138.373 100.856 135.393C98.2708 131.817 99.0661 126.155 102.546 123.473C105.528 121.189 109.207 121.387 112.19 123.076C112.09 120.791 112.09 118.407 112.09 116.122C112.09 112.447 112.587 108.076 111.096 104.6C110.599 103.606 109.903 102.812 108.809 102.712C106.722 102.514 105.827 104.004 105.528 105.792C105.031 107.878 101.85 106.984 102.248 104.898C103.043 101.123 106.224 98.4409 110.301 99.5336C113.184 100.428 114.476 103.308 114.973 105.99C115.669 109.666 115.471 113.54 115.471 117.215C115.471 123.473 115.172 130.327 116.962 136.287ZM109.903 133.903C111.693 132.215 111.991 129.533 112.09 127.149C109.903 125.162 106.622 124.069 104.236 126.453C102.248 128.341 101.949 132.314 104.137 134.102C105.827 135.393 108.312 135.393 109.903 133.903Z" fill="white"/>
<path d="M158.869 130.824C159.466 128.738 162.747 129.632 162.15 131.718C161.156 134.797 159.267 138.075 155.688 138.473C153.401 138.671 151.214 137.777 149.723 135.989C146.143 131.718 146.143 124.665 146.143 119.301C146.143 115.427 146.143 111.454 147.038 107.58C147.734 104.302 149.424 100.527 153.004 99.6329C160.56 97.7456 161.753 107.679 161.255 112.745C161.057 115.427 158.869 115.129 156.782 115.129C154.395 115.129 152.009 115.129 149.623 115.129C149.424 119.401 149.325 123.771 150.12 128.043C150.518 130.228 151.115 133.208 153.103 134.599C156.086 136.585 158.074 133.307 158.869 130.824ZM150.518 107.381C150.12 108.772 149.822 110.262 149.723 111.752C151.313 111.752 153.004 111.752 154.594 111.752C155.688 111.752 156.583 111.752 157.975 111.752C158.074 110.56 158.173 109.268 157.975 108.076C157.776 106.189 157.08 103.01 154.793 102.812C152.308 102.613 151.115 105.494 150.518 107.381Z" fill="white"/>
<path d="M173.702 79.8654C173.801 98.8383 173.901 117.811 174 136.784C174 138.969 170.62 138.969 170.62 136.784C170.62 132.016 170.52 127.149 170.52 122.381C170.421 103.308 170.421 84.3354 170.222 65.2632C170.222 63.1772 173.602 63.1772 173.602 65.2632C173.602 70.1306 173.702 74.998 173.702 79.8654Z" fill="white"/>
<path d="M136.689 100.686C136.988 98.6021 140.28 99.4953 139.981 101.579C138.085 113.588 135.891 125.398 133.596 137.308C133.297 138.797 130.803 138.995 130.404 137.308C128.109 125.398 125.915 113.588 124.019 101.579C123.769 99.8404 126.02 98.9305 126.946 99.8877C127.13 100.078 127.262 100.341 127.311 100.686C128.708 109.817 130.304 118.749 132 127.78C133.696 118.749 135.292 109.817 136.689 100.686Z" fill="white"/>
<path d="M131.576 92.5439C130.708 92.6258 130.188 92.9124 129.676 93.5879C129.025 94.4477 128.868 95.3689 129.103 96.935C129.276 98.0711 129.615 98.6648 130.318 99.0844C131.047 99.5246 131.811 99.6064 132.783 99.371C133.685 99.1561 133.937 98.9718 134.371 98.1939C135.1 96.9247 135.195 95.6146 134.657 94.3351C133.989 92.7179 133.364 92.3597 131.576 92.5439Z" fill="white"/>
<path d="M128.938 85.7312C127.051 86.1974 126.046 87.0656 124.864 89.2521C124.159 90.5544 124.088 90.8277 124.018 92.1139C124.014 92.1752 124.01 92.2384 124.007 92.3031C123.98 92.977 124.552 93.5 125.227 93.5H125.339C126.082 93.5 126.645 92.8186 126.695 92.0772C126.74 91.2649 126.785 91.0922 127.23 90.2698C127.976 88.8888 128.611 88.3405 129.803 88.046C130.582 87.8531 131.373 87.8531 132.699 88.0358C135.049 88.3506 136.508 89.102 137.154 90.3002C137.388 90.7369 137.41 90.9196 137.421 92.4021C137.421 93.0011 137.908 93.5 138.507 93.5H140.126C140.609 93.5 141 93.1107 141 92.6284C140.982 90.2811 140.947 89.9917 140.577 89.3004C139.554 87.4032 137.244 86.2135 133.523 85.7151C131.424 85.4257 130.172 85.4257 128.938 85.7312Z" fill="white"/>
</svg>
